<?xml version="1.0" encoding="UTF-8" standalone="no"?>
<!DOCTYPE svg PUBLIC "-//W3C//DTD SVG 1.1//EN" "http://www.w3.org/Graphics/SVG/1.1/DTD/svg11.dtd">
<svg width="100%" height="100%" viewBox="0 0 3143 307" version="1.1" xmlns="http://www.w3.org/2000/svg" xmlns:xlink="http://www.w3.org/1999/xlink" xml:space="preserve" xmlns:serif="http://www.serif.com/" style="fill-rule:evenodd;clip-rule:evenodd;stroke-linejoin:round;stroke-miterlimit:2;">
    <g transform="matrix(1,0,0,1,-2870.94,-907.69)">
        <g transform="matrix(0.746325,-0.00326036,0.00326036,0.746325,115.348,-1475.78)">
            <path d="M3677.97,3413.23C3677.97,3432.14 3678.99,3449.93 3681.46,3467.83C3681.96,3471.4 3682.78,3474.33 3686.38,3475.84C3708.14,3485.89 3793.7,3524.29 3815.83,3533.64C3837.49,3542.81 3925.25,3579.52 3939.74,3584.9C3944.82,3565.16 3947.22,3507.13 3947.22,3492.97C3947.22,3488.62 3944.53,3484.96 3940.15,3483C3919.1,3473.61 3891.49,3461.67 3869.36,3452.31C3859.22,3448.03 3825.9,3433.58 3796.48,3423.98C3821.22,3416.7 3849.71,3404.63 3859.74,3400.39C3881.41,3391.22 3933.83,3369.31 3947.7,3362.7C3947.7,3320.97 3943.17,3282.79 3937.75,3272.25C3936.08,3268.99 3931.79,3267.57 3928.2,3269.09C3905.72,3277.76 3847.58,3301.57 3825.44,3310.92C3803.77,3320.08 3699.49,3364.72 3679.25,3374.36C3678.4,3387.79 3677.97,3400.84 3677.97,3413.23Z" style="fill:rgb(0,58,255);fill-rule:nonzero;stroke:rgb(0,58,255);stroke-width:1.34px;"/>
            <path d="M3969.77,3278.05C3969.77,3295.43 3970.02,3312.76 3970.46,3331.59C3970.46,3335.18 3973.68,3338.11 3977.65,3338.11C3990.57,3338.51 4024.6,3339.26 4057.39,3339.88C4056.97,3366.9 4056.74,3394.16 4056.74,3424.16C4056.74,3489.36 4058.18,3551.95 4059.62,3613.23C4059.62,3616.83 4062.84,3619.75 4066.8,3619.75C4091.19,3620.52 4116.12,3621.22 4140.51,3621.22C4164.4,3621.22 4180.47,3620.73 4203.28,3619.75C4205.07,3554.56 4206.15,3489.36 4206.15,3424.16C4206.15,3393.82 4205.84,3366.87 4205.36,3340.54C4242.52,3340.29 4280.57,3339.92 4292.44,3339.41C4292.9,3322.6 4293.09,3306.42 4293.09,3290.54C4293.09,3271.81 4292.83,3253.49 4292.44,3235.06C4292.36,3231.45 4289.22,3228.53 4285.25,3228.53C4260.84,3227.77 4161.14,3227.07 4136.75,3227.07C4112.87,3227.07 3993.29,3227.56 3970.46,3228.53C3969.98,3245.91 3969.77,3262.01 3969.77,3278.05L3969.77,3278.05Z" style="fill:rgb(0,58,255);fill-rule:nonzero;stroke:rgb(0,58,255);stroke-width:1.34px;"/>
            <path d="M4328.07,3424.14C4328.07,3489.35 4329.51,3551.93 4330.95,3613.23C4330.95,3616.83 4334.17,3619.75 4338.13,3619.75C4362.51,3620.51 4466.42,3622.52 4490.81,3622.52C4514.68,3622.52 4591.07,3622.03 4613.87,3621.05C4614.33,3604.24 4614.52,3588.61 4614.52,3573.08C4614.52,3554.76 4614.26,3536.57 4613.87,3516.72C4613.8,3513.12 4610.65,3510.2 4606.69,3510.2C4582.31,3509.44 4504,3508.9 4479.59,3508.9L4470.89,3508.9C4470.76,3497.69 4470.61,3486.46 4470.51,3475.01L4563.6,3475.01C4564.03,3459.31 4564.22,3445.32 4564.22,3431.43C4564.22,3415.73 4563.98,3400.16 4563.6,3382.41C4563.52,3378.81 4560.39,3375.89 4556.42,3375.89C4538.12,3375.32 4499.14,3374.87 4470.51,3374.68C4470.61,3363.05 4470.75,3351.74 4470.89,3340.55C4483.05,3340.7 4492.82,3340.79 4498.26,3340.79C4521.95,3340.79 4589.63,3340.47 4612.43,3339.49C4612.89,3322.68 4613.09,3307.06 4613.09,3291.52C4613.09,3273.2 4612.82,3255 4612.43,3235.16C4612.36,3231.56 4609.21,3228.64 4605.25,3228.64C4580.87,3227.87 4504.25,3227.17 4479.86,3227.17C4455.99,3227.17 4353.75,3227.66 4330.95,3228.64C4329.15,3293.84 4328.07,3358.99 4328.07,3424.14L4328.07,3424.14Z" style="fill:rgb(0,58,255);fill-rule:nonzero;stroke:rgb(0,58,255);stroke-width:1.34px;"/>
            <path d="M4632.21,3614.38C4632.21,3617.43 4634.7,3619.75 4638.24,3619.75C4662.5,3620.52 4687.33,3621.22 4711.75,3621.22C4735.66,3621.22 4748.25,3620.73 4771.27,3619.75C4776.53,3596.08 4781.01,3572.14 4784.98,3548.05L4851.75,3548.05C4855.78,3569.98 4860.09,3591.74 4864.78,3613.23C4865.56,3616.82 4869.27,3619.53 4873.23,3619.75C4897.8,3621.17 4919.29,3621.22 4943.71,3621.22C4967.62,3621.22 4983.61,3620.73 5006.26,3619.75C4985.13,3493.17 4951.46,3359.95 4924.26,3235.13C4923.56,3231.53 4919.77,3228.61 4915.8,3228.61C4881.59,3227.55 4848.13,3227.15 4813.18,3227.15C4779.52,3227.15 4746.4,3227.25 4714.32,3228.61C4687.65,3348.71 4656.99,3474.78 4635.69,3593.98C4634.51,3600.57 4632.21,3612.86 4632.21,3614.38L4632.21,3614.38ZM4797.14,3463.3C4803.39,3414.37 4808.75,3365.33 4815.3,3317.05C4822.78,3365.56 4829.78,3414.61 4837.44,3463.3L4797.14,3463.3Z" style="fill:rgb(0,58,255);fill-rule:nonzero;stroke:rgb(0,58,255);stroke-width:1.34px;"/>
            <path d="M5037.65,3424.18C5037.65,3489.37 5039.09,3551.96 5040.53,3613.23C5040.53,3616.83 5043.74,3619.75 5047.7,3619.75C5072.05,3620.52 5100.54,3621.22 5117.72,3621.22C5141.57,3621.22 5154.04,3620.73 5176.81,3619.75L5174.22,3442.7L5252.49,3587.16L5259.7,3588.46L5267.63,3587.16L5349.82,3435.5C5350.12,3496.63 5352.76,3555.51 5354.12,3613.23C5354.12,3616.83 5357.33,3619.75 5361.28,3619.75C5385.61,3620.52 5410.48,3621.22 5427.65,3621.22C5451.48,3621.22 5462.5,3620.73 5483.11,3619.75C5484.9,3554.56 5485.98,3489.37 5485.98,3424.18C5485.98,3358.99 5484.54,3296.41 5483.11,3235.13C5483.11,3231.53 5479.9,3228.76 5475.94,3228.61C5455.87,3227.85 5433.9,3227.15 5409.57,3227.15C5389.73,3227.15 5372.72,3227.85 5359.31,3228.82C5355.82,3229.07 5352.86,3232.33 5350.51,3235.13L5260.06,3402.03L5169.64,3235.13C5168.26,3231.93 5165.7,3228.8 5161.75,3228.61C5140.41,3227.58 5123.98,3227.15 5099.62,3227.15C5075.77,3227.15 5063.3,3227.64 5040.53,3228.61C5038.73,3293.8 5037.65,3358.99 5037.65,3424.18Z" style="fill:rgb(0,58,255);fill-rule:nonzero;stroke:rgb(0,58,255);stroke-width:1.34px;"/>
            <path d="M5536.77,3615.99C5587.06,3620.67 5639.6,3623.16 5688.49,3623.16C5785.56,3623.16 5864.66,3599 5864.66,3495.13C5864.66,3404.2 5775.62,3380.1 5716.39,3363.98C5686.87,3355.95 5664.76,3349.89 5664.76,3338.54C5664.76,3326.47 5679.09,3320.25 5700.85,3320.25C5745.66,3320.25 5796.87,3332.99 5830.5,3346.72L5846.68,3238.26C5798.62,3229.56 5749.61,3223.9 5707.91,3223.9C5609.4,3223.9 5537.49,3231.42 5537.49,3337.24C5537.49,3437.65 5617.81,3458.32 5671.92,3472.22C5699.41,3479.28 5720.14,3484.6 5720.14,3497.73C5720.14,3508.06 5708.76,3520.82 5681.88,3520.82C5649.3,3520.82 5604.72,3512.44 5554.39,3498.08L5536.77,3615.99Z" style="fill:rgb(255,0,52);fill-rule:nonzero;stroke:rgb(57,0,255);stroke-width:1.34px;"/>
            <path d="M5904.03,3424.18C5904.03,3489.37 5905.47,3551.96 5906.9,3613.23C5906.9,3616.83 5910.12,3619.75 5914.08,3619.75C5938.43,3620.52 5966.91,3621.22 5984.1,3621.22C6007.95,3621.22 6020.41,3620.73 6043.19,3619.75L6040.59,3442.7L6118.86,3587.16L6126.07,3588.46L6134,3587.16L6216.19,3435.5C6216.5,3496.63 6219.13,3555.51 6220.49,3613.23C6220.49,3616.83 6223.7,3619.75 6227.66,3619.75C6251.98,3620.52 6276.86,3621.22 6294.03,3621.22C6317.86,3621.22 6328.88,3620.73 6349.48,3619.75C6351.28,3554.56 6352.36,3489.37 6352.36,3424.18C6352.36,3358.99 6350.92,3296.41 6349.48,3235.13C6349.48,3231.53 6346.27,3228.76 6342.31,3228.61C6322.25,3227.85 6300.28,3227.15 6275.94,3227.15C6256.11,3227.15 6239.09,3227.85 6225.69,3228.82C6222.19,3229.07 6219.23,3232.33 6216.89,3235.13L6126.43,3402.03L6036.01,3235.13C6034.64,3231.93 6032.07,3228.8 6028.12,3228.61C6006.78,3227.58 5990.35,3227.15 5965.99,3227.15C5942.14,3227.15 5929.68,3227.64 5906.9,3228.61C5905.11,3293.8 5904.03,3358.99 5904.03,3424.18Z" style="fill:rgb(255,0,52);fill-rule:nonzero;stroke:rgb(57,0,255);stroke-width:1.34px;"/>
            <path d="M6411.56,3424.18C6411.56,3489.37 6412.99,3551.96 6414.43,3613.23C6414.43,3616.83 6417.65,3619.75 6421.61,3619.75C6446,3620.52 6470.93,3621.22 6495.33,3621.22C6519.21,3621.22 6535.29,3620.73 6558.09,3619.75C6559.89,3554.56 6560.97,3489.37 6560.97,3424.18C6560.97,3358.99 6559.53,3296.41 6558.09,3235.13C6558.09,3231.53 6554.88,3228.61 6550.91,3228.61C6526.52,3227.85 6501.59,3227.15 6477.2,3227.15C6453.31,3227.15 6437.24,3227.64 6414.43,3228.61C6412.64,3293.8 6411.56,3358.99 6411.56,3424.18Z" style="fill:rgb(255,0,52);fill-rule:nonzero;stroke:rgb(57,0,255);stroke-width:1.34px;"/>
            <path d="M6615.75,3424.3C6615.85,3489.53 6617.29,3552.05 6618.73,3613.21C6618.73,3616.8 6621.95,3619.72 6625.92,3619.72C6650.33,3620.48 6754.39,3622.48 6778.81,3622.48C6802.72,3622.48 6861.95,3621.99 6884.78,3621.02C6885.24,3604.24 6885.44,3588.65 6885.44,3573.15C6885.44,3554.86 6885.17,3536.71 6884.78,3516.91C6884.71,3513.32 6881.56,3510.4 6877.59,3510.4C6853.18,3509.64 6792.27,3508.94 6767.85,3508.94L6764.8,3508.94C6764.95,3481.31 6765.16,3453.53 6765.16,3424.3C6765.16,3359.07 6763.73,3296.45 6762.29,3235.14C6762.29,3231.54 6759.07,3228.62 6755.11,3228.62C6730.72,3227.85 6705.79,3227.15 6681.39,3227.15C6657.65,3227.15 6641.56,3227.64 6618.73,3228.62C6616.93,3293.85 6615.85,3359.07 6615.85,3424.3L6615.75,3424.3Z" style="fill:rgb(255,0,52);fill-rule:nonzero;stroke:rgb(57,0,255);stroke-width:1.34px;"/>
            <path d="M6915.53,3424.14C6915.53,3489.35 6916.96,3551.93 6918.4,3613.23C6918.4,3616.83 6921.62,3619.75 6925.58,3619.75C6949.96,3620.51 7053.87,3622.52 7078.26,3622.52C7102.13,3622.52 7178.52,3622.03 7201.32,3621.05C7201.78,3604.24 7201.98,3588.61 7201.98,3573.08C7201.98,3554.76 7201.71,3536.57 7201.32,3516.72C7201.25,3513.12 7198.1,3510.2 7194.14,3510.2C7169.76,3509.44 7091.45,3508.9 7067.04,3508.9L7058.35,3508.9C7058.21,3497.69 7058.07,3486.46 7057.96,3475.01L7151.06,3475.01C7151.49,3459.31 7151.67,3445.32 7151.67,3431.43C7151.67,3415.73 7151.44,3400.16 7151.06,3382.41C7150.98,3378.81 7147.84,3375.89 7143.87,3375.89C7125.57,3375.32 7086.59,3374.87 7057.96,3374.68C7058.07,3363.05 7058.2,3351.74 7058.35,3340.55C7070.5,3340.7 7080.27,3340.79 7085.71,3340.79C7109.41,3340.79 7177.09,3340.47 7199.88,3339.49C7200.34,3322.68 7200.54,3307.06 7200.54,3291.52C7200.54,3273.2 7200.27,3255 7199.88,3235.16C7199.81,3231.56 7196.67,3228.64 7192.7,3228.64C7168.32,3227.87 7091.7,3227.17 7067.31,3227.17C7043.44,3227.17 6941.2,3227.66 6918.4,3228.64C6916.6,3293.84 6915.53,3358.99 6915.53,3424.14L6915.53,3424.14Z" style="fill:rgb(255,0,52);fill-rule:nonzero;stroke:rgb(57,0,255);stroke-width:1.34px;"/>
            <path d="M7219.07,3230.79C7231.79,3280.23 7250.76,3346.68 7279,3397.1C7295.55,3422.72 7315.92,3442.58 7337.33,3458.58C7336.76,3511.49 7336.27,3562.81 7336.27,3613.23C7336.27,3616.83 7339.49,3619.75 7343.45,3619.75C7367.83,3620.52 7394.19,3621.22 7418.58,3621.22C7442.46,3621.22 7459.97,3620.73 7482.77,3619.75C7482.47,3565.99 7481.68,3512.23 7481.01,3458.46C7502.4,3442.51 7522.68,3422.54 7539.1,3397.1C7567.34,3346.68 7586.31,3280.23 7599.03,3230.79C7574.93,3228.24 7549.47,3227.15 7523.77,3227.15C7504.5,3227.15 7485.08,3227.76 7466.03,3228.84C7461.98,3229.06 7456.45,3231.47 7455.05,3235.36C7439.16,3279.14 7422.43,3333.41 7409.05,3377.55C7395.66,3333.41 7378.94,3279.14 7363.05,3235.36C7361.64,3231.47 7356.11,3229.06 7352.07,3228.84C7333.02,3227.76 7313.6,3227.15 7294.32,3227.15C7268.63,3227.15 7243.17,3228.24 7219.07,3230.79Z" style="fill:rgb(255,0,52);fill-rule:nonzero;stroke:rgb(57,0,255);stroke-width:1.34px;"/>
            <path d="M7617.5,3485.47C7617.5,3527.2 7622.03,3565.39 7627.44,3575.92C7629.12,3579.18 7633.4,3580.6 7637,3579.08C7659.48,3570.41 7717.62,3546.6 7739.75,3537.24C7761.43,3528.08 7865.71,3483.45 7885.94,3473.81C7886.8,3460.38 7887.22,3447.33 7887.22,3434.94C7887.22,3416.03 7886.21,3398.25 7883.74,3380.34C7883.24,3376.77 7882.41,3373.85 7878.82,3372.33C7857.05,3362.28 7771.5,3323.89 7749.37,3314.53C7727.7,3305.37 7639.95,3268.65 7625.45,3263.26C7620.38,3283 7617.97,3341.04 7617.97,3355.2C7617.97,3359.55 7620.66,3363.21 7625.05,3365.17C7646.1,3374.57 7673.71,3386.5 7695.84,3395.86C7705.97,3400.14 7739.3,3414.6 7768.72,3424.19C7743.97,3431.47 7715.49,3443.54 7705.45,3447.79C7683.78,3456.95 7631.37,3478.86 7617.5,3485.47L7617.5,3485.47Z" style="fill:rgb(255,0,52);fill-rule:nonzero;stroke:rgb(57,0,255);stroke-width:1.34px;"/>
        </g>
    </g>
</svg>
